/* XPM */
static const char * filenew[] = {
"12 16 6 1",
" 	c #040404",
".	c None",
"X	c white",
"o	c #808304",
"O	c black",
"+	c #f3f7f3",
"       .....",
" XXXXX  ....",
" XXXXX X ...",
" XXXXX XX ..",
" XXXXX    O.",
" XXXXXXXXXO.",
" XXXXXXXXXO.",
" XXXXXXXXXO.",
" XXXXXXXXXO.",
" XXXXXXXXXO.",
" XXXXXXXXXO.",
" XXXXXXXXXO.",
"OXXXXXXXXXO.",
"OXXXXXXXXXO.",
"OOOOOOOOOOO.",
"............"};
